<svg width="354" height="354" viewBox="0 0 354 354" fill="none" xmlns="http://www.w3.org/2000/svg">
<path fill-rule="evenodd" clip-rule="evenodd" d="M351 53C351 25.3858 328.614 3.00001 301 3H23C11.9543 3 3 11.9543 3 23V46.5H38.1484L3 177V301C3 328.614 25.3858 351 53 351H331C342.046 351 351 342.046 351 331V307.5H316.548L351 177V53ZM182 331C182 325.477 186.477 321 192 321C197.523 321 202 325.477 202 331C202 336.523 197.523 341 192 341C186.477 341 182 336.523 182 331ZM222 331C222 325.477 226.477 321 232 321C237.523 321 242 325.477 242 331C242 336.523 237.523 341 232 341C226.477 341 222 336.523 222 331ZM262 331C262 325.477 266.477 321 272 321C277.523 321 282 325.477 282 331C282 336.523 277.523 341 272 341C266.477 341 262 336.523 262 331ZM302 331C302 325.477 306.477 321 312 321C317.523 321 322 325.477 322 331C322 336.523 317.523 341 312 341C306.477 341 302 336.523 302 331ZM45.3223 105.665C51.2301 101.135 58.4694 98.6807 65.916 98.6807C73.3625 98.6808 80.6011 101.136 86.5088 105.665C92.4165 110.195 96.6635 116.545 98.5908 123.732C100.518 130.92 100.018 138.542 97.168 145.416C94.3182 152.29 89.2779 158.033 82.8291 161.753V228.403C91.6982 224.981 101.302 222.989 110.689 221.046C139.718 215.015 149.122 210.832 150.332 195.474C145.21 192.485 140.963 188.204 138.02 183.059C135.076 177.913 133.538 172.084 133.561 166.157C133.583 160.23 135.165 154.413 138.147 149.29C141.13 144.167 145.408 139.917 150.553 136.968C155.698 134.018 161.528 132.472 167.46 132.484C173.391 132.497 179.215 134.068 184.348 137.039C189.48 140.01 193.741 144.278 196.701 149.414C199.662 154.55 201.218 160.373 201.216 166.3C201.213 172.247 199.64 178.089 196.655 183.234C193.671 188.38 189.381 192.648 184.218 195.606C183.25 215.205 175.042 230.098 159.714 239.911C147.028 248.05 132.043 251.15 117.545 254.145C91.5084 259.526 84.315 262.87 83.0518 272.376C89.4628 276.139 94.4546 281.908 97.2549 288.79C100.055 295.673 100.508 303.286 98.543 310.451C96.5781 317.617 92.305 323.936 86.3848 328.432C80.4647 332.927 73.2273 335.348 65.792 335.32C58.3564 335.293 51.1365 332.818 45.25 328.278C39.3636 323.739 35.1379 317.388 33.2266 310.208C31.3153 303.028 31.8253 295.419 34.6768 288.558C37.5283 281.696 42.5628 275.964 49.002 272.249V161.753C42.5531 158.033 37.5128 152.29 34.6631 145.416C31.8134 138.542 31.3129 130.92 33.2402 123.732C35.1675 116.545 39.4146 110.195 45.3223 105.665ZM182 304C182 298.477 186.477 294 192 294C197.523 294 202 298.477 202 304C202 309.523 197.523 314 192 314C186.477 314 182 309.523 182 304ZM222 304C222 298.477 226.477 294 232 294C237.523 294 242 298.477 242 304C242 309.523 237.523 314 232 314C226.477 314 222 309.523 222 304ZM262 304C262 298.477 266.477 294 272 294C277.523 294 282 298.477 282 304C282 309.523 277.523 314 272 314C266.477 314 262 309.523 262 304ZM182 277C182 271.477 186.477 267 192 267C197.523 267 202 271.477 202 277C202 282.523 197.523 287 192 287C186.477 287 182 282.523 182 277ZM222 277C222 271.477 226.477 267 232 267C237.523 267 242 271.477 242 277C242 282.523 237.523 287 232 287C226.477 287 222 282.523 222 277ZM182 250C182 244.477 186.477 240 192 240C197.523 240 202 244.477 202 250C202 255.523 197.523 260 192 260C186.477 260 182 255.523 182 250ZM223 122C223 110.954 231.954 102 243 102H316C327.046 102 336 110.954 336 122V146C336 157.046 327.046 166 316 166H243C231.954 166 223 157.046 223 146V122ZM182 109C182 103.477 186.477 99 192 99C197.523 99 202 103.477 202 109C202 114.523 197.523 119 192 119C186.477 119 182 114.523 182 109ZM142 82C142 76.4772 146.477 72 152 72C157.523 72 162 76.4772 162 82C162 87.5228 157.523 92 152 92C146.477 92 142 87.5228 142 82ZM182 82C182 76.4772 186.477 72 192 72C197.523 72 202 76.4772 202 82C202 87.5228 197.523 92 192 92C186.477 92 182 87.5228 182 82ZM316 88H223V24H316C327.046 24 336 32.9543 336 44V68C336 79.0457 327.046 88 316 88ZM102 55C102 49.4772 106.477 45 112 45C117.523 45 122 49.4772 122 55C122 60.5228 117.523 65 112 65C106.477 65 102 60.5228 102 55ZM142 55C142 49.4772 146.477 45 152 45C157.523 45 162 49.4772 162 55C162 60.5228 157.523 65 152 65C146.477 65 142 60.5228 142 55ZM182 55C182 49.4772 186.477 45 192 45C197.523 45 202 49.4772 202 55C202 60.5228 197.523 65 192 65C186.477 65 182 60.5228 182 55ZM62 28C62 22.4772 66.4772 18 72 18C77.5228 18 82 22.4772 82 28C82 33.5228 77.5228 38 72 38C66.4772 38 62 33.5228 62 28ZM102 28C102 22.4772 106.477 18 112 18C117.523 18 122 22.4772 122 28C122 33.5228 117.523 38 112 38C106.477 38 102 33.5228 102 28ZM142 28C142 22.4772 146.477 18 152 18C157.523 18 162 22.4772 162 28C162 33.5228 157.523 38 152 38C146.477 38 142 33.5228 142 28ZM182 28C182 22.4772 186.477 18 192 18C197.523 18 202 22.4772 202 28C202 33.5228 197.523 38 192 38C186.477 38 182 33.5228 182 28Z" fill="#336791"/>
<path d="M72.3779 285.889C69.2874 284.61 65.8864 284.275 62.6055 284.927C59.3245 285.579 56.3107 287.188 53.9453 289.552C51.5799 291.915 49.969 294.927 49.3164 298.205C48.6638 301.483 48.9982 304.882 50.2783 307.97C51.5584 311.058 53.7266 313.697 56.5078 315.554C59.2893 317.411 62.56 318.402 65.9053 318.402C70.391 318.402 74.6933 316.622 77.8652 313.452C81.037 310.283 82.8193 305.984 82.8193 301.502C82.8193 298.159 81.8273 294.892 79.9688 292.112C78.1103 289.333 75.4683 287.168 72.3779 285.889Z" fill="#336791"/>
<path d="M173.86 150.687C170.77 149.408 167.37 149.073 164.089 149.725C160.808 150.377 157.794 151.986 155.429 154.35C153.063 156.713 151.451 159.725 150.799 163.003C150.146 166.281 150.482 169.679 151.762 172.768C153.042 175.856 155.21 178.496 157.991 180.353C160.773 182.209 164.043 183.2 167.388 183.2C171.874 183.2 176.176 181.419 179.348 178.25C182.52 175.081 184.302 170.782 184.302 166.3C184.302 162.957 183.31 159.69 181.451 156.911C179.593 154.132 176.951 151.966 173.86 150.687Z" fill="#336791"/>
<path d="M75.3018 118.447C72.5204 116.59 69.2504 115.6 65.9053 115.6C61.4196 115.6 57.1172 117.38 53.9453 120.549C50.7735 123.718 48.9913 128.017 48.9912 132.499C48.9912 135.842 49.9833 139.109 51.8418 141.889C53.7003 144.668 56.342 146.834 59.4326 148.113C62.5232 149.392 65.9242 149.727 69.2051 149.075C72.4859 148.423 75.4999 146.814 77.8652 144.45C80.2306 142.087 81.8415 139.075 82.4941 135.797C83.1468 132.519 82.8114 129.12 81.5312 126.032C80.2511 122.944 78.0832 120.304 75.3018 118.447Z" fill="#336791"/>
<path fill-rule="evenodd" clip-rule="evenodd" d="M351 53C351 25.3858 328.614 3.00001 301 3H23C11.9543 3 3 11.9543 3 23V46.5H38.1484L3 177V301C3 328.614 25.3858 351 53 351H331C342.046 351 351 342.046 351 331V307.5H316.548L351 177V53ZM182 331C182 325.477 186.477 321 192 321C197.523 321 202 325.477 202 331C202 336.523 197.523 341 192 341C186.477 341 182 336.523 182 331ZM222 331C222 325.477 226.477 321 232 321C237.523 321 242 325.477 242 331C242 336.523 237.523 341 232 341C226.477 341 222 336.523 222 331ZM262 331C262 325.477 266.477 321 272 321C277.523 321 282 325.477 282 331C282 336.523 277.523 341 272 341C266.477 341 262 336.523 262 331ZM302 331C302 325.477 306.477 321 312 321C317.523 321 322 325.477 322 331C322 336.523 317.523 341 312 341C306.477 341 302 336.523 302 331ZM45.3223 105.665C51.2301 101.135 58.4694 98.6807 65.916 98.6807C73.3625 98.6808 80.6011 101.136 86.5088 105.665C92.4165 110.195 96.6635 116.545 98.5908 123.732C100.518 130.92 100.018 138.542 97.168 145.416C94.3182 152.29 89.2779 158.033 82.8291 161.753V228.403C91.6982 224.981 101.302 222.989 110.689 221.046C139.718 215.015 149.122 210.832 150.332 195.474C145.21 192.485 140.963 188.204 138.02 183.059C135.076 177.913 133.538 172.084 133.561 166.157C133.583 160.23 135.165 154.413 138.147 149.29C141.13 144.167 145.408 139.917 150.553 136.968C155.698 134.018 161.528 132.472 167.46 132.484C173.391 132.497 179.215 134.068 184.348 137.039C189.48 140.01 193.741 144.278 196.701 149.414C199.662 154.55 201.218 160.373 201.216 166.3C201.213 172.247 199.64 178.089 196.655 183.234C193.671 188.38 189.381 192.648 184.218 195.606C183.25 215.205 175.042 230.098 159.714 239.911C147.028 248.05 132.043 251.15 117.545 254.145C91.5084 259.526 84.315 262.87 83.0518 272.376C89.4628 276.139 94.4546 281.908 97.2549 288.79C100.055 295.673 100.508 303.286 98.543 310.451C96.5781 317.617 92.305 323.936 86.3848 328.432C80.4647 332.927 73.2273 335.348 65.792 335.32C58.3564 335.293 51.1365 332.818 45.25 328.278C39.3636 323.739 35.1379 317.388 33.2266 310.208C31.3153 303.028 31.8253 295.419 34.6768 288.558C37.5283 281.696 42.5628 275.964 49.002 272.249V161.753C42.5531 158.033 37.5128 152.29 34.6631 145.416C31.8134 138.542 31.3129 130.92 33.2402 123.732C35.1675 116.545 39.4146 110.195 45.3223 105.665ZM182 304C182 298.477 186.477 294 192 294C197.523 294 202 298.477 202 304C202 309.523 197.523 314 192 314C186.477 314 182 309.523 182 304ZM222 304C222 298.477 226.477 294 232 294C237.523 294 242 298.477 242 304C242 309.523 237.523 314 232 314C226.477 314 222 309.523 222 304ZM262 304C262 298.477 266.477 294 272 294C277.523 294 282 298.477 282 304C282 309.523 277.523 314 272 314C266.477 314 262 309.523 262 304ZM182 277C182 271.477 186.477 267 192 267C197.523 267 202 271.477 202 277C202 282.523 197.523 287 192 287C186.477 287 182 282.523 182 277ZM222 277C222 271.477 226.477 267 232 267C237.523 267 242 271.477 242 277C242 282.523 237.523 287 232 287C226.477 287 222 282.523 222 277ZM182 250C182 244.477 186.477 240 192 240C197.523 240 202 244.477 202 250C202 255.523 197.523 260 192 260C186.477 260 182 255.523 182 250ZM223 122C223 110.954 231.954 102 243 102H316C327.046 102 336 110.954 336 122V146C336 157.046 327.046 166 316 166H243C231.954 166 223 157.046 223 146V122ZM182 109C182 103.477 186.477 99 192 99C197.523 99 202 103.477 202 109C202 114.523 197.523 119 192 119C186.477 119 182 114.523 182 109ZM142 82C142 76.4772 146.477 72 152 72C157.523 72 162 76.4772 162 82C162 87.5228 157.523 92 152 92C146.477 92 142 87.5228 142 82ZM182 82C182 76.4772 186.477 72 192 72C197.523 72 202 76.4772 202 82C202 87.5228 197.523 92 192 92C186.477 92 182 87.5228 182 82ZM316 88H223V24H316C327.046 24 336 32.9543 336 44V68C336 79.0457 327.046 88 316 88ZM102 55C102 49.4772 106.477 45 112 45C117.523 45 122 49.4772 122 55C122 60.5228 117.523 65 112 65C106.477 65 102 60.5228 102 55ZM142 55C142 49.4772 146.477 45 152 45C157.523 45 162 49.4772 162 55C162 60.5228 157.523 65 152 65C146.477 65 142 60.5228 142 55ZM182 55C182 49.4772 186.477 45 192 45C197.523 45 202 49.4772 202 55C202 60.5228 197.523 65 192 65C186.477 65 182 60.5228 182 55ZM62 28C62 22.4772 66.4772 18 72 18C77.5228 18 82 22.4772 82 28C82 33.5228 77.5228 38 72 38C66.4772 38 62 33.5228 62 28ZM102 28C102 22.4772 106.477 18 112 18C117.523 18 122 22.4772 122 28C122 33.5228 117.523 38 112 38C106.477 38 102 33.5228 102 28ZM142 28C142 22.4772 146.477 18 152 18C157.523 18 162 22.4772 162 28C162 33.5228 157.523 38 152 38C146.477 38 142 33.5228 142 28ZM182 28C182 22.4772 186.477 18 192 18C197.523 18 202 22.4772 202 28C202 33.5228 197.523 38 192 38C186.477 38 182 33.5228 182 28Z" stroke="black" stroke-width="6"/>
<path d="M72.3779 285.889C69.2874 284.61 65.8864 284.275 62.6055 284.927C59.3245 285.579 56.3107 287.188 53.9453 289.552C51.5799 291.915 49.969 294.927 49.3164 298.205C48.6638 301.483 48.9982 304.882 50.2783 307.97C51.5584 311.058 53.7266 313.697 56.5078 315.554C59.2893 317.411 62.56 318.402 65.9053 318.402C70.391 318.402 74.6933 316.622 77.8652 313.452C81.037 310.283 82.8193 305.984 82.8193 301.502C82.8193 298.159 81.8273 294.892 79.9688 292.112C78.1103 289.333 75.4683 287.168 72.3779 285.889Z" stroke="black" stroke-width="6"/>
<path d="M173.86 150.687C170.77 149.408 167.37 149.073 164.089 149.725C160.808 150.377 157.794 151.986 155.429 154.35C153.063 156.713 151.451 159.725 150.799 163.003C150.146 166.281 150.482 169.679 151.762 172.768C153.042 175.856 155.21 178.496 157.991 180.353C160.773 182.209 164.043 183.2 167.388 183.2C171.874 183.2 176.176 181.419 179.348 178.25C182.52 175.081 184.302 170.782 184.302 166.3C184.302 162.957 183.31 159.69 181.451 156.911C179.593 154.132 176.951 151.966 173.86 150.687Z" stroke="black" stroke-width="6"/>
<path d="M75.3018 118.447C72.5204 116.59 69.2504 115.6 65.9053 115.6C61.4196 115.6 57.1172 117.38 53.9453 120.549C50.7735 123.718 48.9913 128.017 48.9912 132.499C48.9912 135.842 49.9833 139.109 51.8418 141.889C53.7003 144.668 56.342 146.834 59.4326 148.113C62.5232 149.392 65.9242 149.727 69.2051 149.075C72.4859 148.423 75.4999 146.814 77.8652 144.45C80.2306 142.087 81.8415 139.075 82.4941 135.797C83.1468 132.519 82.8114 129.12 81.5312 126.032C80.2511 122.944 78.0832 120.304 75.3018 118.447Z" stroke="black" stroke-width="6"/>
</svg>
